<svg xmlns="http://www.w3.org/2000/svg" viewBox="0 0 1024 1024" width="1024" height="1024">
  <!-- Salmon App icon · 几何折纸鱼 v2 -->
  <defs>
    <linearGradient id="bg" x1="0" y1="0" x2="0" y2="1">
      <stop offset="0" stop-color="#FFF7F2"/>
      <stop offset="1" stop-color="#FFEAE0"/>
    </linearGradient>
    <filter id="fishShadow" x="-10%" y="-10%" width="120%" height="120%">
      <feGaussianBlur in="SourceAlpha" stdDeviation="8"/>
      <feOffset dx="0" dy="6" result="off"/>
      <feComponentTransfer><feFuncA type="linear" slope="0.18"/></feComponentTransfer>
      <feMerge><feMergeNode/><feMergeNode in="SourceGraphic"/></feMerge>
    </filter>
  </defs>

  <!-- rounded square background -->
  <rect width="1024" height="1024" rx="224" fill="url(#bg)"/>

  <!-- fish: vertices in viewBox 0..1024 -->
  <g filter="url(#fishShadow)">
    <!-- Front-top facet (lightest) -->
    <polygon points="160,512 480,256 640,512" fill="#FFA68A"/>
    <!-- Front-bottom facet -->
    <polygon points="160,512 480,768 640,512" fill="#FA8072"/>
    <!-- Mid-top facet -->
    <polygon points="640,512 480,256 800,400" fill="#E5685A"/>
    <!-- Mid-bottom facet (darkest body) -->
    <polygon points="640,512 480,768 800,624" fill="#B7493D"/>
    <!-- Tail upper fin -->
    <polygon points="800,400 800,624 960,272" fill="#B7493D"/>
    <!-- Tail lower fin -->
    <polygon points="800,400 800,624 960,752" fill="#E5685A"/>
    <!-- Crease lines (subtle origami folds) -->
    <g stroke="#FFF1ED" stroke-width="3" opacity="0.55" fill="none" stroke-linejoin="round">
      <path d="M160 512 L 640 512"/>
      <path d="M480 256 L 480 768"/>
      <path d="M640 512 L 800 400"/>
      <path d="M640 512 L 800 624"/>
    </g>
  </g>

  <!-- eye -->
  <circle cx="352" cy="476" r="34" fill="#1B1F23"/>
  <circle cx="342" cy="466" r="11" fill="#FFFFFF"/>
</svg>
